<svg xmlns="http://www.w3.org/2000/svg" width="230.47" height="120.5" viewBox="0 0 230.47 120.5">
  <g id="Group_1" data-name="Group 1" transform="translate(361.462 -401.02)">
    <path id="Path_37" data-name="Path 37" d="M706.168,325.088H697.18l-14.89-22.869c-1.113,1.03-1.631,2.339-2.557,3.515a12.893,12.893,0,0,1,3.882,9.449,11.931,11.931,0,0,1-2.775,7.4,11.271,11.271,0,0,1-12.953,3.364,12.066,12.066,0,0,1-7.222-12.605H667.5c.617.622.277,1.514.446,2.288a4.2,4.2,0,0,0,4.64,3.551,4.347,4.347,0,0,0,3.651-5.033,6.082,6.082,0,0,0-1.651-3.348c-1.357-1.477-2.681-2.984-4.109-4.578l3.537-5.51c1.166-1.817,2.338-3.634,3.634-5.646l-18.473-28.481c3.03-.47,5.882-.09,8.818-.244l14.181,21.768c3.066-4.7,6.011-9.225,9.156-14.047h-9.593v-7.653h3.817c3.81,0,7.629.165,11.428-.036,3.43-.179,5.489,3.96,3.94,6.7-.367.648-.763,1.279-1.17,1.9-4.3,6.63-8.609,13.257-13.047,20.088Z" transform="translate(-927.906 146.261)" fill="#03539c"/>
    <path id="Path_38" data-name="Path 38" d="M796.351,289.825c1.121-.157,2.006-.295,2.893-.4a6.739,6.739,0,0,0,3.306-1.266,4.934,4.934,0,0,0,2.011-5.118,4.452,4.452,0,0,0-3.315-3.544c-3.878-1.325-7.9-2.223-11.668-3.865a10.542,10.542,0,0,1-6.729-9.093h7.169c1.989,2.994,5.176,4.154,8.572,4.943a50.9,50.9,0,0,1,6.228,1.719c8.837,3.275,9.579,15.15,3.476,19.806-.179.135-.378.241-.748.475a19.491,19.491,0,0,1,5.156,7.1c4.982,11.907-3.889,25.109-16.62,24.7-8.139-.261-15.461-7.187-16.177-15.509-.248-2.884-.04-5.807-.04-8.889h6.969a33.569,33.569,0,0,1,.2,6.394,10.176,10.176,0,0,0,3.979,8.374,9.435,9.435,0,0,0,10.711.724,10.52,10.52,0,0,0,4.942-10.077,9.954,9.954,0,0,0-8.892-8.91c-.436-.061-.867-.152-1.447-.255A66,66,0,0,1,796.351,289.825Z" transform="translate(-993.864 146.152)" fill="#03539c"/>
    <path id="Path_39" data-name="Path 39" d="M456.5,310.667c2.822-6.714,7.057-12.154,13.938-15,7.916-3.277,17.218,1.3,19.8,9.633a9.036,9.036,0,0,0-2.016,6.881A20.985,20.985,0,0,0,476.2,326.785c-3.208.39-6-.736-8.621-2.351A28.846,28.846,0,0,1,456.5,310.667Z" transform="translate(-817.271 128.927)" fill="#03539c"/>
    <path id="Path_40" data-name="Path 40" d="M554.964,316.318a8.817,8.817,0,0,0,1.905-6.757,21.041,21.041,0,0,0,12.043-14.581c8.3-1.08,16.912,8.209,19.74,16.115-3.308,7.262-7.881,13.483-16.34,15.6C565.042,328.505,557.133,323.736,554.964,316.318Z" transform="translate(-871.057 128.757)" fill="#03539c"/>
    <path id="Path_41" data-name="Path 41" d="M529.546,275.522a8.619,8.619,0,0,0-6.616-2.134,23.461,23.461,0,0,0-5.632-7.976,19.971,19.971,0,0,0-8.36-4.38c-.7-7.634,5.979-16.439,15.57-20.512,7.37,3.6,13.3,8.716,15.095,17.24C541.407,266.334,535.365,273.964,529.546,275.522Z" transform="translate(-846.159 160.5)" fill="#03539c"/>
    <path id="Path_42" data-name="Path 42" d="M518.931,342.448a8.265,8.265,0,0,0,6.693,2.25,20.3,20.3,0,0,0,13.836,12.345c1.306,7.357-6.605,16.944-15.188,20.37-6.626-1.954-16.027-11.032-15.667-20.124A16.152,16.152,0,0,1,518.931,342.448Z" transform="translate(-845.997 100.894)" fill="#03539c"/>
    <path id="Path_43" data-name="Path 43" d="M886.8,266.657H893.7c.565.745.3,1.6.3,2.383.029,12.692.02,25.384.049,38.075.011,4.861,2.578,8.7,6.67,10.13a9.867,9.867,0,0,0,12.97-9.286c.075-2.3.012-4.6.012-7a43.69,43.69,0,0,1,7.177-.039c.416,6.717.62,13.26-4.313,18.616-4.506,4.893-10.043,6.934-16.575,5.332-6.773-1.66-10.836-6.221-12.711-12.826a17.728,17.728,0,0,1-.6-4.873q.011-19.486.03-38.971C886.707,267.763,886.761,267.323,886.8,266.657Z" transform="translate(-1052.253 146.088)" fill="#03539c"/>
    <path id="Subtraction_3" data-name="Subtraction 3" d="M7.68,18.937a9.445,9.445,0,0,1-5.025-1.442,6.483,6.483,0,0,1-1.8-1.57A3.71,3.71,0,0,1,.07,13.768C-.02,10.566,0,7.325.014,4.192v0h0C.02,2.966.027,1.7.027.466A2.381,2.381,0,0,1,1.288.142c.207,0,.415.017.635.034s.445.035.688.038v7.42c0,.441.008.89.016,1.325.017.963.035,1.959-.034,2.932a5.329,5.329,0,0,0,.437,2.826A3.894,3.894,0,0,0,5.2,16.565a7.019,7.019,0,0,0,2.575.475,7.194,7.194,0,0,0,2.438-.415,4.789,4.789,0,0,0,1.884-1.2,3.136,3.136,0,0,0,.865-2.236c-.006-1.279,0-2.574,0-3.826V7.857a2.747,2.747,0,0,0-1.906-.964,2.533,2.533,0,0,0-1.66.734,4.977,4.977,0,0,0-.333,2.385A5.876,5.876,0,0,1,8.9,11.9a1.263,1.263,0,0,1-.933.339c-.139,0-.278-.011-.426-.023H7.531c-.142-.011-.3-.024-.465-.024a2.41,2.41,0,0,0-.4.031,25.066,25.066,0,0,1-.005-4.88L7.89,5.778,7.9,5.76C7.051,4.8,6.084,3.707,6.777,2.233a3.405,3.405,0,0,1,1.5-1.6A5.6,5.6,0,0,1,10.436.04c.275-.027.542-.04.794-.04A4.237,4.237,0,0,1,15.6,3.19a2.886,2.886,0,0,1-.531,1.457,8.138,8.138,0,0,1-.55.739c-.079.1-.152.189-.222.28a9.121,9.121,0,0,1,1.528,4.813,13.014,13.014,0,0,1-.863,4.826,4.52,4.52,0,0,1-2.335,2.546,11.012,11.012,0,0,1-3.527.987A10.444,10.444,0,0,1,7.68,18.937Zm3.238-17.1A1.978,1.978,0,0,0,9.09,3.075c.654,1.142,1.127,1.566,1.746,1.566a4.017,4.017,0,0,0,1.936-.8,1.475,1.475,0,0,0,.041-1.18,1.216,1.216,0,0,0-.78-.62,3.694,3.694,0,0,0-1.115-.2Z" transform="translate(-318.295 501.158)" fill="#03539c" stroke="rgba(0,0,0,0)" stroke-miterlimit="10" stroke-width="1"/>
    <path id="Subtraction_6" data-name="Subtraction 6" d="M4.058,19A5.3,5.3,0,0,1,2.2,18.637C.746,18.09.065,17.276.056,16.074.05,15.2.041,14.31.033,13.448v-.006c-.038-3.82-.077-7.769.1-11.622A4.527,4.527,0,0,1,3.748.029,8.209,8.209,0,0,1,6.415.556c.2-.049.4-.1.6-.158A8.636,8.636,0,0,1,9.269,0,3.837,3.837,0,0,1,10.66.25a4.078,4.078,0,0,1,1.6.982A2.451,2.451,0,0,1,12.9,2.973c.006,3.713,0,7.5,0,11.17v4.323a3.736,3.736,0,0,1-1.3.269,3.428,3.428,0,0,1-1.182-.234V2.607A2.2,2.2,0,0,0,9,1.9a1.893,1.893,0,0,0-1.216.551c0,1.216,0,2.467,0,3.678,0,2.84,0,5.778,0,8.692a4.453,4.453,0,0,1-1.052,3.05A3.5,3.5,0,0,1,4.058,19ZM3.873,1.918a2.25,2.25,0,0,0-1.251.449V16.383a1.815,1.815,0,0,0,1.286.676,1.717,1.717,0,0,0,1.065-.438V2.243a2.352,2.352,0,0,0-1.1-.324Z" transform="translate(-189.862 501.091)" fill="#03539c" stroke="rgba(0,0,0,0)" stroke-miterlimit="10" stroke-width="1"/>
    <path id="Subtraction_2" data-name="Subtraction 2" d="M8.577,21.587a3.43,3.43,0,0,1-.907-.16,12.252,12.252,0,0,1,.4-2.947,13.682,13.682,0,0,0,.411-2.821,6.9,6.9,0,0,0-1.88-.23c-.55,0-1.1.042-1.681.087l-.522.039-.449,2.089-.017.078-.766,3.572a1.694,1.694,0,0,1-.938.269,4.442,4.442,0,0,1-.454-.031c-.115-.012-.235-.024-.359-.03a10.089,10.089,0,0,1,.38-3.3,11.436,11.436,0,0,0,.385-2.441,1.3,1.3,0,0,0-.963-.3H1a1.3,1.3,0,0,1-.774-.179A1.824,1.824,0,0,1,.134,13.7c.014-.059.028-.118.041-.179l1.077-.1H1.26l1.252-.111a13.654,13.654,0,0,0,.977-4.1c.034-.26.069-.529.106-.794A3.882,3.882,0,0,0,2.155,8.2c-.144,0-.291,0-.432.007H1.718c-.139,0-.282.006-.423.006a4.68,4.68,0,0,1-.953-.082c-.493-.5-.351-1.1-.2-1.733l.023-.1a3.185,3.185,0,0,1,1.444-.275c.171,0,.347.006.516.011s.349.011.523.011a3.379,3.379,0,0,0,1.511-.287,17.968,17.968,0,0,0,.534-2.505A14.37,14.37,0,0,1,5.406.261,1.717,1.717,0,0,1,6.263,0a1.749,1.749,0,0,1,.863.258,9.406,9.406,0,0,1-.374,2.876,11.394,11.394,0,0,0-.41,2.77,9.069,9.069,0,0,0,1.72.143c.359,0,.724-.013,1.077-.026C9.47,6.01,9.845,6,10.212,6h.2a17.674,17.674,0,0,0,.617-2.781,13.772,13.772,0,0,1,.706-2.94,1.215,1.215,0,0,1,.783-.254,4.184,4.184,0,0,1,.636.069l.224.034a8.856,8.856,0,0,1-.331,3.337,11.727,11.727,0,0,0-.37,2.243,1.383,1.383,0,0,0,1.055.323,1.3,1.3,0,0,1,.936.254A1.994,1.994,0,0,1,14.7,7.972a1.858,1.858,0,0,1-1.073.25h-.438a2.663,2.663,0,0,0-1.015.158,18.6,18.6,0,0,0-.715,3.252c-.076.479-.155.974-.249,1.469a3.42,3.42,0,0,0,1.6.308c.119,0,.237,0,.352,0s.231,0,.345,0a3.853,3.853,0,0,1,1.073.122c.437.493.308,1.054.144,1.766l0,.022a3.974,3.974,0,0,1-1.273.173c-.211,0-.429-.008-.641-.016h-.01c-.214-.008-.436-.017-.661-.017a4.95,4.95,0,0,0-1.19.123,8.411,8.411,0,0,0-.871,3.133,10.332,10.332,0,0,1-.6,2.582A1.4,1.4,0,0,1,8.577,21.587ZM7.546,8.183a7.034,7.034,0,0,0-1.839.2c-.288,1.557-.566,3.06-.89,4.816A9.989,9.989,0,0,0,7,13.45a11.074,11.074,0,0,0,1.981-.189,18.145,18.145,0,0,0,.93-5.073c-.24.016-.493.024-.773.024S8.6,8.2,8.336,8.2H8.323c-.255-.007-.518-.014-.777-.014Z" transform="translate(-360.991 499.432)" fill="#03539c" stroke="rgba(0,0,0,0)" stroke-miterlimit="10" stroke-width="1"/>
    <path id="Subtraction_5" data-name="Subtraction 5" d="M8.582,18.95a5.676,5.676,0,0,1-2.836-.8,2.91,2.91,0,0,1-1.491-1.96,8.374,8.374,0,0,1-.027-2.467c.017-.2.034-.4.048-.6a2.6,2.6,0,0,1,1.177-.236c.156,0,.31.007.461.013s.305.013.455.013c.125,0,.236,0,.339-.014a7.5,7.5,0,0,1,.071,1.5,5.521,5.521,0,0,0,.213,2.025,2.785,2.785,0,0,0,1.611.59,2.71,2.71,0,0,0,1.743-.731c.006-.369.023-.744.04-1.107a11.863,11.863,0,0,0-.087-2.852,1.62,1.62,0,0,0-1.027-.792,1.138,1.138,0,0,1-.632-.4c-.449-1.084.13-1.435.744-1.806a2.47,2.47,0,0,0,.925-.794,53.029,53.029,0,0,0,.031-6.172,2.338,2.338,0,0,0-1.287-.486,1.83,1.83,0,0,0-1.318.673v5.3a6.8,6.8,0,0,1-1.7,1.707,3.329,3.329,0,0,1-1.884.546A9.041,9.041,0,0,1,.938,9.314a4.282,4.282,0,0,1-.93-3.409c.005-.269.011-.547,0-.817C0,4.414,0,3.741,0,3.09c0-.294,0-.571,0-.849A4.5,4.5,0,0,1,1.634.527,4,4,0,0,1,3.656.018a6.607,6.607,0,0,1,1.6.216A4.949,4.949,0,0,0,6.475.392,5.4,5.4,0,0,0,7.821.21a6.629,6.629,0,0,1,1.6-.216,3.361,3.361,0,0,1,2.508.942,4.517,4.517,0,0,1,1.047,3.336c-.011.471.019.96.048,1.433.1,1.583.2,3.22-1.129,4.665,1.256,1.358,1.179,3.067,1.1,4.719-.01.22-.021.449-.028.673a2.844,2.844,0,0,1-1.682,2.458A5.625,5.625,0,0,1,8.582,18.95ZM3.9,1.9a2.091,2.091,0,0,0-1.172.433,23.147,23.147,0,0,0,0,5.39,1.8,1.8,0,0,0,1.157.546,1.8,1.8,0,0,0,1.223-.628c-.007-.519.026-1.043.062-1.6a9.73,9.73,0,0,0-.259-3.8A1.878,1.878,0,0,0,3.9,1.9Z" transform="translate(-205.607 501.078)" fill="#03539c" stroke="rgba(0,0,0,0)" stroke-miterlimit="10" stroke-width="1"/>
    <path id="Subtraction_4" data-name="Subtraction 4" d="M11.062,18.779a4.7,4.7,0,0,1-.832-.1l-.241-.045a1.736,1.736,0,0,1-.577-1.015,2.307,2.307,0,0,0-.324-.757A9.357,9.357,0,0,0,7.016,14.7a4.677,4.677,0,0,0-2.8-.9c-.155,0-.314.007-.474.02-.373.031-.771.045-1.251.045-.351,0-.7-.008-1.044-.016s-.664-.015-.987-.015a1.31,1.31,0,0,1-.3-1.654,1.337,1.337,0,0,1,.882-.224,1.7,1.7,0,0,0,.9-.192C-.184,9.895-.039,7.621.1,5.423A13.155,13.155,0,0,0,.066,2.4,4.673,4.673,0,0,1,1.67.559,3.782,3.782,0,0,1,3.719,0,5.983,5.983,0,0,1,5.073.167,6.828,6.828,0,0,0,6.64.358,6.85,6.85,0,0,0,8.1.2,7.222,7.222,0,0,1,9.6.02,3.2,3.2,0,0,1,12.2,1.09a4.86,4.86,0,0,1,.889,3.126v.22c0,.662,0,1.346-.011,2.019A3.734,3.734,0,0,1,12.059,9.2a4.1,4.1,0,0,1-2.89.914h-.1c-2.448-.029-3.629-1.206-3.717-3.705-.015-.426,0-.86.008-1.28a8.981,8.981,0,0,0-.179-2.613,1.439,1.439,0,0,0-1.129-.581,3.257,3.257,0,0,0-1.3.362V4.171c0,1.441,0,2.93,0,4.389a2.8,2.8,0,0,0,1.742,2.405c.449.255.915.5,1.365.734a17.7,17.7,0,0,1,3.236,2c1.388,1.166,2.961,2.485,3.025,4.71a1.631,1.631,0,0,1-1.07.365ZM9.161,1.892a1.871,1.871,0,0,0-1.017.328,13.359,13.359,0,0,0-.1,5.547,1.992,1.992,0,0,0,1.208.519,1.615,1.615,0,0,0,1.117-.538,19.805,19.805,0,0,0-.015-5.488A2.477,2.477,0,0,0,9.161,1.892Z" transform="translate(-263.6 501.11)" fill="#03539c" stroke="rgba(0,0,0,0)" stroke-miterlimit="10" stroke-width="1"/>
    <path id="Path_49" data-name="Path 49" d="M709.576,487.634c1.663.245,3.315.143,4.723,1.05a6.2,6.2,0,0,1,5.008-.5c1.707.637,2.43,1.495,2.471,3.287.045,2,.01,4.011.01,5.96-.858.676-1.626.348-2.467.279-.418-2.46.082-4.855-.269-7.17-1.57-1-1.57-1-3.193-.107-.607,1.522-.008,3.2-.386,4.814a2.616,2.616,0,0,1-2.188.146c-.636-1.607.185-3.4-.516-4.969-1.622-.895-1.622-.895-3.175.183-.478,2.279.164,4.687-.321,6.962a3.863,3.863,0,0,1-2.288.2c0-3.423-.068-6.825.032-10.222.045-1.465,1.384-1.992,2.5-2.606,2.374-1.309,4.646-2.725,5.256-5.584a4.586,4.586,0,0,1,2.443.1C716.737,484.111,712.3,484.977,709.576,487.634Z" transform="translate(-954.204 22.024)" fill="#03539c"/>
    <path id="Path_50" data-name="Path 50" d="M946.727,497.4a4.546,4.546,0,0,1-2.638-.171c0-2.59,0-5.257,0-7.925,0-2.311-.075-4.625.014-6.933.09-2.243,1.745-3.58,4.271-3.634,2.327-.048,4.424,1.278,4.466,3.166.114,5.123.039,10.251.039,15.276a4.087,4.087,0,0,1-2.535.242V481.658c-1.125-1.146-2.121-1.334-3.2-.328-.477,3.813-.059,7.647-.216,11.467C946.863,494.332,947.173,495.884,946.727,497.4Z" transform="translate(-1083.895 22.308)" fill="#03539c"/>
    <path id="Path_51" data-name="Path 51" d="M873.916,481.32c-.877-1.032-1.81-.6-3-.151V497.26a3.512,3.512,0,0,1-2.768.058v-6.851c0-2.614-.039-5.23.018-7.843.051-2.389,1.662-3.768,4.31-3.809,2.668-.045,4.456,1.3,4.491,3.618.075,4.921.023,9.843.023,14.885-1.035.25-1.919.651-2.7-.306-.377-4.426-.053-8.861-.173-13.29A5.336,5.336,0,0,0,873.916,481.32Z" transform="translate(-1042.03 22.267)" fill="#03539c"/>
    <path id="Subtraction_1" data-name="Subtraction 1" d="M4.59,18.985h0c-.095,0-.192,0-.288-.007A5.008,5.008,0,0,1,.7,17.567a3.023,3.023,0,0,1-.689-2.356,11.162,11.162,0,0,0,.019-1.272c-.005-.244-.011-.493-.008-.742A4.663,4.663,0,0,1,1.05,9.785,4.785,4.785,0,0,1,4.494,8.748c.147,0,.3,0,.5,0H6.055c0-.667.021-1.319.045-1.951a15.781,15.781,0,0,0-.23-4.351A2.517,2.517,0,0,0,4.37,1.9a2.811,2.811,0,0,0-1.31.362,3.2,3.2,0,0,0-.5,2A4.054,4.054,0,0,1,2.35,5.7a1.505,1.505,0,0,1-.927.288A4.189,4.189,0,0,1,.909,5.95a4,4,0,0,0-.4-.036,2.849,2.849,0,0,1-.48-2.045A4.434,4.434,0,0,1,.589,1.605,4.752,4.752,0,0,1,4.373,0,5.985,5.985,0,0,1,6.325.322c1.756.6,2.38,1.6,2.386,3.8v.569c.009,3.409.018,6.934-.005,10.4a3.834,3.834,0,0,1-1.124,2.834A4.236,4.236,0,0,1,4.59,18.985Zm-.279-8.407a2.235,2.235,0,0,0-1.579.752,13.219,13.219,0,0,0-.189,3.908c.017.343.035.7.045,1.045a2.8,2.8,0,0,0,1.768.785,2.647,2.647,0,0,0,1.669-.718c.013-.388.036-.779.059-1.158a11.836,11.836,0,0,0-.214-4.037,2.8,2.8,0,0,0-1.559-.577Z" transform="translate(-342.751 501.131)" fill="#03539c" stroke="rgba(0,0,0,0)" stroke-miterlimit="10" stroke-width="1"/>
    <path id="Path_53" data-name="Path 53" d="M597.966,481.685a2.453,2.453,0,0,0-2.749-.7c-1.032.668-.84,1.7-.842,2.651-.014,4.551-.006,9.1-.006,13.571-.763.683-1.475.479-2.356.272V481.062A5.277,5.277,0,0,1,598,479.177c1.325.456,2.512,1.246,2.531,2.8.061,5.142.023,10.286.023,15.386a3.133,3.133,0,0,1-2.588-.013Z" transform="translate(-891.376 22.233)" fill="#03539c"/>
    <path id="Path_54" data-name="Path 54" d="M651.024,481.3a3.15,3.15,0,0,0-3.326-.143c-.607,5.255.045,10.685-.331,16.067-.7.566-1.429.245-2.3.3V481.144c2.217-3.079,5.947-3.146,8.457-.069v16.214a2.864,2.864,0,0,1-2.5-.026Z" transform="translate(-920.392 22.274)" fill="#03539c"/>
    <path id="Path_55" data-name="Path 55" d="M618.655,490.006a3.47,3.47,0,0,1,2.139-.143c.547,1.695-.049,3.513.409,5.262,1.015,1.032,2.082.875,3.285.09v-6c-.575-.956-1.537-.837-2.171-1.24a1.493,1.493,0,0,1-.012-1.352c.575-.48,1.5-.145,2.131-1.026a13.447,13.447,0,0,0,.06-4.114,2.391,2.391,0,0,0-2.8-.441c-1.166.974-.386,2.417-.839,3.568a2.621,2.621,0,0,1-1.906.224c-.8-.715-.608-3.634.287-4.612,1.734-1.893,6.112-1.839,7.389.294a6.741,6.741,0,0,1,.176,5.8,6.391,6.391,0,0,1-.549.987c1.675,2.516,1,5.319.781,7.99-.135,1.623-2.6,2.692-4.755,2.467-2.307-.244-3.652-1.413-3.765-3.361-.069-1.19-.039-2.386-.027-3.579A3.963,3.963,0,0,1,618.655,490.006Z" transform="translate(-905.83 22.243)" fill="#03539c"/>
    <path id="Path_56" data-name="Path 56" d="M524.05,490.119a3.4,3.4,0,0,1,2.465-.079c.377,1.653-.008,3.382.256,5.1a2.093,2.093,0,0,0,3.248.174V481.4a2.444,2.444,0,0,0-2.928-.124c-.768,1.066-.168,2.355-.549,3.464a3.389,3.389,0,0,1-2.195.1c-.647-3.061-.292-4.315,1.48-5.264,2.267-1.214,4.656-.745,6.666,1.319.57,1.5.33,3.081.338,4.639.016,2.912.056,5.826-.024,8.736-.062,2.253-1.943,3.7-4.486,3.614-2.574-.086-4.185-1.435-4.262-3.633C524.011,492.86,524.05,491.457,524.05,490.119Z" transform="translate(-854.511 22.206)" fill="#03539c"/>
    <path id="Path_57" data-name="Path 57" d="M755.4,481.114c0,4.425.035,8.893-.018,13.361-.02,1.649-1.042,2.583-3.005,3.05-3.5.836-5.652-.83-5.662-4.379,0-1.032,0-2.067,0-3.027a2.584,2.584,0,0,1,2.336-.231c.459,1.714-.135,3.539.386,5.213,1.027,1.006,2.041.727,3.226.22V481.33a2.473,2.473,0,0,0-2.922-.238c-.88,1.131-.167,2.457-.736,3.529a2.547,2.547,0,0,1-1.94.115c-.763-2.916-.409-4.3,1.328-5.268C750.674,478.2,753.245,478.735,755.4,481.114Z" transform="translate(-975.961 22.273)" fill="#03539c"/>
    <path id="Path_58" data-name="Path 58" d="M918.882,490.262a3.745,3.745,0,0,1,2.58-.022v4.925a2.462,2.462,0,0,0,3.492.159v-8.768c-.573-.942-1.416-1.262-2.681-.5-.567.285-.166,1.208-.752,1.668a3.469,3.469,0,0,1-1.929-.029c-.306-2.805.974-3.791,5.245-3.966.514-1.369.076-2.882.344-4.289a2.685,2.685,0,0,1,2.3-.11v16.325c-1.746,2.066-3.726,2.685-6.026,1.968a3.282,3.282,0,0,1-2.572-3.445C918.863,492.857,918.882,491.532,918.882,490.262Z" transform="translate(-1070.008 22.093)" fill="#03539c"/>
    <path id="Path_59" data-name="Path 59" d="M776.178,495.285a2.342,2.342,0,0,0,3.305.157,27.656,27.656,0,0,0,.135-4.546c.027-1.56.006-3.121.006-4.427-1.362-2.657-5.091-3.374-4.694-6.929.711-.493,1.435-.3,2.321-.19-.106,2.063,1.422,3.117,2.793,4.194a5.328,5.328,0,0,1,2.243,5.01c-.163,1.923,0,3.87-.048,5.806-.056,2.266-1.726,3.606-4.413,3.62-2.533.014-4.2-1.32-4.265-3.517a20.523,20.523,0,0,1,.059-4.172,2.526,2.526,0,0,1,2.262-.137C776.294,491.824,775.846,493.553,776.178,495.285Z" transform="translate(-990.613 22.042)" fill="#03539c"/>
    <path id="Path_60" data-name="Path 60" d="M893.642,490.313a2.988,2.988,0,0,1,2.243-.277c.65,1.685-.015,3.516.4,5.189a2.132,2.132,0,0,0,3.147.283,3.026,3.026,0,0,0,.3-1.612c.013-2.607.006-5.215.006-7.481-1.447-2.666-5.14-3.409-4.677-6.922a2.891,2.891,0,0,1,2.23-.162c.011,2.176,1.726,3.26,3.174,4.463a4.8,4.8,0,0,1,1.92,4.262c-.115,2.083-.007,4.178-.06,6.265-.059,2.323-1.677,3.609-4.42,3.593-2.6-.015-4.172-1.29-4.252-3.522C893.6,492.995,893.642,491.593,893.642,490.313Z" transform="translate(-1056.085 22.06)" fill="#03539c"/>
    <path id="Path_62" data-name="Path 62" d="M949.926,500.588c-.013-4.743-.034-9.486-.028-14.229,0-.634-.227-1.357.443-1.844.013,4.946.038,9.892.02,14.838C950.359,499.764,950.737,500.419,949.926,500.588Z" transform="translate(-1087.094 19.123)" fill="#03539c"/>
    <path id="Path_63" data-name="Path 63" d="M880.976,484.4c.449.283.445.74.442,1.186q-.031,7.253-.071,14.506a2.139,2.139,0,0,1-.4-1.676Q880.955,491.409,880.976,484.4Z" transform="translate(-1049.09 19.186)" fill="#03539c"/>
  </g>
</svg>
